<svg xmlns="http://www.w3.org/2000/svg" viewBox="0 0 400 120" fill="none">
  <!-- Endava Orange E -->
  <path d="M40 85V35H80V45H52V55H75V65H52V75H80V85H40Z" fill="#FF5640"/>
  <!-- Text 'endava' in White/Dark -->
  <path d="M100 85V50H112V55C116 51 120 48 128 48C140 48 145 55 145 65V85H133V66C133 59 130 57 124 57C118 57 112 61 112 68V85H100Z" fill="#FFFFFF"/>
  <path d="M185 85V30H173V45C169 41 163 38 155 38C142 38 135 48 135 62C135 76 142 86 155 86C163 86 169 83 173 79V85H185ZM160 76C152 76 147 70 147 62C147 54 152 48 160 48C168 48 173 54 173 62C173 70 168 76 160 76Z" fill="#FFFFFF"/>
  <path d="M225 85V79C221 83 215 86 207 86C194 86 187 76 187 62C187 48 194 38 207 38C215 38 221 41 225 45V30H237V85H225ZM212 76C220 76 225 70 225 62C225 54 220 48 212 48C204 48 199 54 199 62C199 70 204 76 212 76Z" fill="#FFFFFF"/>
  <path d="M255 85L240 40H252L262 72L272 40H284L269 85H255Z" fill="#FFFFFF"/>
  <path d="M315 85V79C311 83 305 86 297 86C284 86 277 76 277 62C277 48 284 38 297 38C305 38 311 41 315 45V30H327V85H315ZM302 76C310 76 315 70 315 62C315 54 310 48 302 48C294 48 289 54 289 62C289 70 294 76 302 76Z" fill="#FFFFFF"/>
</svg>
