<svg xmlns="http://www.w3.org/2000/svg" viewBox="0 0 200 200" fill="none">
  <defs>
    <linearGradient id="greenLiq" x1="100" y1="50" x2="100" y2="180" gradientUnits="userSpaceOnUse">
      <stop stop-color="#a3e635"/>
      <stop offset="1" stop-color="#4d7c0f"/>
    </linearGradient>
  </defs>
  <rect width="200" height="200" fill="#1e293b"/>
  <path d="M85 20 H115 V60 C115 60 135 70 135 90 V170 C135 175 130 180 125 180 H75 C70 180 65 175 65 170 V90 C65 70 85 60 85 60 V20 Z" fill="#3f6212" stroke="#fff" stroke-opacity="0.2" stroke-width="1"/>
  <path d="M70 170 V95 C70 85 85 75 88 75 H112 C115 75 130 85 130 95 V170 H70 Z" fill="url(#greenLiq)" opacity="0.9"/>
  <rect x="83" y="15" width="34" height="20" rx="2" fill="#ecfccb"/>
  <rect x="75" y="100" width="50" height="40" rx="2" fill="#fff"/>
  <text x="100" y="120" font-family="sans-serif" font-size="8" font-weight="bold" fill="#365314" text-anchor="middle">SOUR</text>
  <text x="100" y="130" font-family="sans-serif" font-size="8" fill="#365314" text-anchor="middle">APPLE</text>
</svg>