<svg xmlns="http://www.w3.org/2000/svg" viewBox="0 0 200 200" fill="none">
  <defs>
    <linearGradient id="redLiq" x1="100" y1="50" x2="100" y2="180" gradientUnits="userSpaceOnUse">
      <stop stop-color="#f87171"/>
      <stop offset="1" stop-color="#991b1b"/>
    </linearGradient>
  </defs>
  <rect width="200" height="200" fill="#1e293b"/>
  <path d="M90 20 H110 V50 C110 50 140 60 140 100 V170 C140 175 135 180 130 180 H70 C65 180 60 175 60 170 V100 C60 60 90 50 90 50 V20 Z" fill="#7f1d1d" stroke="#fff" stroke-opacity="0.1" stroke-width="1"/>
  <path d="M65 170 V105 C65 80 90 70 92 70 H108 C110 70 135 80 135 105 V170 H65 Z" fill="url(#redLiq)" opacity="0.9"/>
  <rect x="88" y="15" width="24" height="15" rx="2" fill="#fee2e2"/>
  <rect x="80" y="110" width="40" height="30" rx="2" fill="#fff"/>
  <text x="100" y="128" font-family="sans-serif" font-size="8" font-weight="bold" fill="#991b1b" text-anchor="middle">CHERRY</text>
</svg>